<?xml version="1.0" encoding="utf-8" ?>
<svg baseProfile="tiny" height="100%" version="1.2" width="100%" xmlns="http://www.w3.org/2000/svg" xmlns:ev="http://www.w3.org/2001/xml-events" xmlns:xlink="http://www.w3.org/1999/xlink"><defs /><path d="M896 832V0H224Q184 0 156.0 28.0Q128 56 128 96Q128 136 156.0 164.0Q184 192 224 192H832V960H192Q139 960 101.5 922.5Q64 885 64 832V64Q64 11 101.5 -26.5Q139 -64 192 -64H960V832ZM224 128Q224 128 224.0 128.0Q224 128 224 128Q211 128 201.5 118.5Q192 109 192 96Q192 83 201.5 73.5Q211 64 224 64Q224 64 224.0 64.0Q224 64 224 64H832V128H224Z" fill="black" transform="scale(1,-1) translate(0,-1000)" /></svg>