<?xml version="1.0" encoding="utf-8" ?>
<svg baseProfile="tiny" height="100%" version="1.2" width="100%" xmlns="http://www.w3.org/2000/svg" xmlns:ev="http://www.w3.org/2001/xml-events" xmlns:xlink="http://www.w3.org/1999/xlink"><defs /><path d="M990 866Q1009 872 1018.5 889.5Q1028 907 1022 926Q1017 945 999.5 954.5Q982 964 962 958L103 706Q89 702 76.5 695.5Q64 689 53 680Q29 662 14.5 635.0Q0 608 0 576V64Q0 11 37.5 -26.5Q75 -64 128 -64H896Q949 -64 986.5 -26.5Q1024 11 1024 64V576Q1024 629 986.5 666.5Q949 704 896 704H437ZM736 160Q670 160 623.0 207.0Q576 254 576 320Q576 386 623.0 433.0Q670 480 736 480Q802 480 849.0 433.0Q896 386 896 320Q896 254 849.0 207.0Q802 160 736 160ZM160 448Q160 461 169.5 470.5Q179 480 192 480H384Q397 480 406.5 470.5Q416 461 416 448Q416 435 406.5 425.5Q397 416 384 416H192Q179 416 169.5 425.5Q160 435 160 448ZM128 320Q128 333 137.5 342.5Q147 352 160 352H416Q429 352 438.5 342.5Q448 333 448 320Q448 307 438.5 297.5Q429 288 416 288H160Q147 288 137.5 297.5Q128 307 128 320ZM160 192Q160 205 169.5 214.5Q179 224 192 224H384Q397 224 406.5 214.5Q416 205 416 192Q416 179 406.5 169.5Q397 160 384 160H192Q179 160 169.5 169.5Q160 179 160 192Z" fill="black" transform="scale(1,-1) translate(0,-1000)" /></svg>