<?xml version="1.0" encoding="utf-8" ?>
<svg baseProfile="tiny" height="100%" version="1.2" width="100%" xmlns="http://www.w3.org/2000/svg" xmlns:ev="http://www.w3.org/2001/xml-events" xmlns:xlink="http://www.w3.org/1999/xlink"><defs /><path d="M755 896Q715 896 678 881Q641 866 609.5 841.0Q578 816 553 784Q528 751 512 717Q496 751 471 784Q446 816 414.5 841.0Q383 866 346 881Q309 896 269 896Q213 896 164 875Q115 854 78.5 817.5Q42 781 21 732Q0 683 0 627Q0 514 51 436Q102 357 178.5 286.0Q255 215 344 137Q434 60 512 -52Q586 59 675 138Q764 217 841.5 289.0Q919 361 972 439Q1024 518 1024 627Q1024 683 1003 732Q982 781 945.5 817.5Q909 854 860 875Q811 896 755 896Z" fill="black" transform="scale(1,-1) translate(0,-1000)" /></svg>