<?xml version="1.0" encoding="utf-8" ?>
<svg baseProfile="tiny" height="100%" version="1.2" width="100%" xmlns="http://www.w3.org/2000/svg" xmlns:ev="http://www.w3.org/2001/xml-events" xmlns:xlink="http://www.w3.org/1999/xlink"><defs /><path d="M438 960Q528 960 607 944Q687 928 746.0 900.5Q805 873 839 835Q873 798 873 756Q873 714 839 677Q805 640 746.0 612.0Q687 584 607 568Q528 552 438 552Q348 552 268 568Q189 584 130.0 612.0Q71 640 36 677Q2 714 2 756Q2 798 36 835Q71 873 130.0 900.5Q189 928 268 944Q348 960 438 960ZM2 278V122Q31 18 167 -26Q303 -69 456.5 -63.0Q610 -57 736 -5Q863 47 873 136V292Q859 195 730 143Q600 92 446.0 89.0Q292 86 159 132Q25 179 2 278ZM0 685V533Q29 432 166 387Q302 341 456.5 344.5Q611 348 738 396Q865 444 876 531V683Q861 589 731 541Q601 493 446.5 493.0Q292 493 157 541Q23 589 0 685ZM0 488V332Q29 228 166 182Q302 135 456.5 138.5Q611 142 738 192Q865 241 876 330V486Q861 389 731 340Q601 291 446.5 291.0Q292 291 157 340Q23 389 0 488Z" fill="black" transform="scale(1,-1) translate(0,-1000)" /></svg>