<?xml version="1.0" encoding="utf-8" ?>
<svg baseProfile="tiny" height="100%" version="1.2" width="100%" xmlns="http://www.w3.org/2000/svg" xmlns:ev="http://www.w3.org/2001/xml-events" xmlns:xlink="http://www.w3.org/1999/xlink"><defs /><path d="M192 768V448Q192 369 248.0 312.5Q304 256 384 256Q463 256 519.5 312.0Q576 368 576 448H416Q403 448 393.5 457.5Q384 467 384 480Q384 493 393.5 502.5Q403 512 416 512H576V576H416Q403 576 393.5 585.5Q384 595 384 608Q384 621 393.5 630.5Q403 640 416 640H576V704H416Q403 704 393.5 713.5Q384 723 384 736Q384 749 393.5 758.5Q403 768 416 768H576Q576 847 520.0 903.5Q464 960 384 960Q305 960 248.5 904.0Q192 848 192 768ZM640 480V448Q640 395 620 348Q600 302 565.0 267.0Q530 232 484 212Q437 192 384 192Q331 192 284 212Q238 232 203.0 267.0Q168 302 148 348Q128 395 128 448V528Q128 548 114.0 562.0Q100 576 80 576Q60 576 46.0 562.0Q32 548 32 528V448Q32 381 55 322Q79 262 120.0 215.5Q161 169 216 139Q272 108 336 99V32H240Q220 32 206.0 18.0Q192 4 192 -16Q192 -36 206.0 -50.0Q220 -64 240 -64H528Q548 -64 562.0 -50.0Q576 -36 576 -16Q576 4 562.0 18.0Q548 32 528 32H432V99Q496 108 552 139Q607 169 648.0 215.5Q689 262 713 322Q736 381 736 448V528Q736 548 722.0 562.0Q708 576 688 576Q668 576 654.0 562.0Q640 548 640 528V480Z" fill="black" transform="scale(1,-1) translate(0,-1000)" /></svg>