<?xml version="1.0" encoding="utf-8" ?>
<svg baseProfile="tiny" height="100%" version="1.2" width="100%" xmlns="http://www.w3.org/2000/svg" xmlns:ev="http://www.w3.org/2001/xml-events" xmlns:xlink="http://www.w3.org/1999/xlink"><defs /><path d="M480 256Q546 256 593.0 303.0Q640 350 640 416V800Q640 866 593.0 913.0Q546 960 480 960Q414 960 367.0 913.0Q320 866 320 800V416Q320 350 367.0 303.0Q414 256 480 256ZM704 512V416Q704 370 686 329Q669 288 638.5 257.5Q608 227 567 210Q526 192 480 192Q434 192 393 210Q352 227 321.5 257.5Q291 288 274 329Q256 370 256 416V512H192V416Q192 360 212 311Q232 262 266.5 223.5Q301 185 347 160Q394 136 448 130V0H320V-64H640V0H512V130Q566 136 613 160Q659 185 693.5 223.5Q728 262 748 311Q768 360 768 416V512Z" fill="black" transform="scale(1,-1) translate(0,-1000)" /></svg>