<?xml version="1.0" encoding="utf-8" ?>
<svg baseProfile="tiny" height="100%" version="1.2" width="100%" xmlns="http://www.w3.org/2000/svg" xmlns:ev="http://www.w3.org/2001/xml-events" xmlns:xlink="http://www.w3.org/1999/xlink"><defs /><path d="M855 456Q851 459 845.0 463.5Q839 468 830 474V561Q830 643 799 716Q768 789 713.5 843.0Q659 897 586 929Q514 960 431 960Q348 960 276 929Q203 897 149.0 843.0Q95 789 63 716Q32 643 32 561V474Q23 468 17.0 463.5Q11 459 7 456Q4 453 2.0 449.0Q0 445 0 440Q0 440 0.0 440.0Q0 440 0 440V337Q0 337 0.0 337.0Q0 337 0 337Q0 332 2.0 328.0Q4 324 7 322Q16 314 37.5 299.0Q59 284 92 268V258Q92 237 103.5 222.5Q115 208 131 208Q147 208 158.5 222.5Q170 237 170 258V506Q170 527 158.5 541.0Q147 555 131 555Q115 555 104.0 542.0Q93 529 92 510V561Q92 631 118 693Q145 755 191.0 801.0Q237 847 299 873Q361 900 431 900Q501 900 563 873Q625 847 671.0 801.0Q717 755 744 693Q770 631 770 561V510Q769 529 758.0 542.0Q747 555 731 555Q715 555 703.5 541.0Q692 527 692 506V258Q692 237 703.5 222.5Q715 208 731 208Q747 208 758.5 222.5Q770 237 770 258V268Q803 284 824.5 299.0Q846 314 855 322Q858 324 860.0 328.0Q862 332 862 337Q862 337 862.0 337.0Q862 337 862 337V440Q862 440 862.0 440.0Q862 440 862 440Q862 445 860.0 449.0Q858 453 855 456ZM292 24Q311 24 325.0 37.5Q339 51 339 71V600Q339 600 339.0 600.0Q339 600 339 600Q339 620 325.0 634.0Q311 648 292 648H243Q223 648 209.5 634.0Q196 620 196 600V71Q196 51 209.5 37.5Q223 24 243 24Q243 24 243.0 24.0Q243 24 243 24ZM214 521H321V509H214ZM455 24Q475 24 489.0 37.5Q503 51 503 71V600Q503 600 503.0 600.0Q503 600 503 600Q503 620 489.0 634.0Q475 648 455 648H407Q387 648 373.0 634.0Q359 620 359 600V71Q359 51 373.0 37.5Q387 24 407 24Q407 24 407.0 24.0Q407 24 407 24ZM377 521H485V509H377ZM619 24Q639 24 652.5 37.5Q666 51 666 71V600Q666 600 666.0 600.0Q666 600 666 600Q666 620 652.5 634.0Q639 648 619 648H570Q551 648 537.0 634.0Q523 620 523 600V71Q523 51 537.0 37.5Q551 24 570 24Q570 24 570.0 24.0Q570 24 570 24ZM541 521H649V509H541ZM114 7H748Q763 7 773.5 -3.5Q784 -14 784 -28Q784 -43 773.5 -53.5Q763 -64 748 -64H114Q99 -64 88.5 -53.5Q78 -43 78 -28Q78 -14 88.5 -3.5Q99 7 114 7Z" fill="black" transform="scale(1,-1) translate(0,-1000)" /></svg>