<?xml version="1.0" encoding="utf-8" ?>
<svg baseProfile="tiny" height="100%" version="1.2" width="100%" xmlns="http://www.w3.org/2000/svg" xmlns:ev="http://www.w3.org/2001/xml-events" xmlns:xlink="http://www.w3.org/1999/xlink"><defs /><path d="M832 64H192V192L384 512L647 192L832 320ZM832 480Q832 440 804.0 412.0Q776 384 736 384Q696 384 668.0 412.0Q640 440 640 480Q640 520 668.0 548.0Q696 576 736 576Q776 576 804.0 548.0Q832 520 832 480ZM918 731Q901 754 878.5 779.5Q856 805 831 831Q805 856 779.5 878.5Q754 901 731 918Q692 946 671.5 953.0Q651 960 640 960H144Q111 960 87.5 936.5Q64 913 64 880V16Q64 -17 87.5 -40.5Q111 -64 144 -64H880Q913 -64 936.5 -40.5Q960 -17 960 16V640Q960 651 953.0 671.5Q946 692 918 731ZM785 785Q808 762 826.5 741.5Q845 721 858 704H704V858Q721 845 741.5 826.5Q762 808 785 785ZM896 16Q896 9 891.5 4.5Q887 0 880 0H144Q137 0 132.5 4.5Q128 9 128 16V880Q128 887 132.5 891.5Q137 896 144 896Q144 896 221 896Q299 896 392.0 896.0Q485 896 562 896Q640 896 640 896V672Q640 659 649.5 649.5Q659 640 672 640H896Z" fill="black" transform="scale(1,-1) translate(0,-1000)" /></svg>