<?xml version="1.0" encoding="utf-8" ?>
<svg baseProfile="tiny" height="100%" version="1.2" width="100%" xmlns="http://www.w3.org/2000/svg" xmlns:ev="http://www.w3.org/2001/xml-events" xmlns:xlink="http://www.w3.org/1999/xlink"><defs /><path d="M585 366V-64H458V366Q427 383 407.5 414.5Q388 446 388 484Q388 539 427.0 578.5Q466 618 522 618Q577 618 616.0 578.5Q655 539 655 484Q655 446 636.0 414.5Q617 383 585 366ZM334 865Q352 874 359.0 894.0Q366 914 357 932Q347 951 327.5 957.5Q308 964 290 955Q252 936 218 912Q185 887 156.0 858.0Q127 829 103 795Q79 762 60 725Q33 672 17.5 613.0Q2 554 0 493Q-2 433 10.5 372.0Q23 311 51 255Q68 220 91 187Q115 154 144.5 124.5Q174 95 210 69Q246 42 289 20Q307 11 327.0 17.5Q347 24 356 42Q366 61 359.5 80.5Q353 100 334 109Q264 145 216.0 194.0Q168 243 141 299Q118 344 108.5 392.5Q99 441 100 490Q102 540 114.5 588.0Q127 636 149 680Q179 739 226.0 787.0Q273 835 334 865ZM754 955Q735 964 715.5 957.5Q696 951 687 932Q678 914 684.5 894.0Q691 874 710 865Q770 835 817.0 787.0Q864 739 894 680Q917 636 929.5 588.0Q942 540 943 490Q945 441 935.0 392.5Q925 344 903 299Q875 243 827.0 194.0Q779 145 709 109Q691 100 684.5 80.5Q678 61 687 42Q697 24 716.5 17.5Q736 11 754 20Q797 42 833 69Q869 95 899.0 124.5Q929 154 952 187Q975 220 992 255Q1020 311 1032.5 372.0Q1045 433 1043 493Q1041 554 1026.0 613.0Q1011 672 983 725Q964 762 940 795Q916 829 887.5 858.0Q859 887 825 912Q792 936 754 955ZM703 735Q689 745 672.0 742.0Q655 739 645 725Q635 712 637.5 695.0Q640 678 654 667Q660 663 665.5 658.5Q671 654 676 649Q708 620 726.5 582.5Q745 545 749 504Q753 462 741.5 419.5Q730 377 702 338Q697 331 691.5 324.5Q686 318 680 311Q669 298 669.5 281.0Q670 264 683 252Q695 240 712.5 241.0Q730 242 741 254Q749 263 756.0 271.5Q763 280 770 289Q807 341 822.0 398.0Q837 455 832 511Q826 568 801.0 619.5Q776 671 733 711Q726 717 718.5 723.0Q711 729 703 735ZM389 667Q403 677 405.5 694.0Q408 711 398 725Q388 739 371.0 742.0Q354 745 340 735Q332 729 324.5 723.0Q317 717 310 711Q267 671 242.0 619.5Q217 568 212 511Q206 455 221.0 398.0Q236 341 274 289Q280 280 287.0 271.5Q294 263 302 254Q314 242 331.0 241.0Q348 240 361 252Q373 264 374.0 281.0Q375 298 363 311Q357 318 351.5 324.5Q346 331 341 338Q313 377 301.5 419.5Q290 462 294 504Q298 545 316.5 582.5Q335 620 367 649Q372 654 377.5 658.5Q383 663 389 667Z" fill="black" transform="scale(1,-1) translate(0,-1000)" /></svg>