<?xml version="1.0" encoding="utf-8" ?>
<svg baseProfile="tiny" height="100%" version="1.2" width="100%" xmlns="http://www.w3.org/2000/svg" xmlns:ev="http://www.w3.org/2001/xml-events" xmlns:xlink="http://www.w3.org/1999/xlink"><defs /><path d="M224 832H32Q19 832 9.5 822.5Q0 813 0 800V96Q0 83 9.5 73.5Q19 64 32 64H224Q237 64 246.5 73.5Q256 83 256 96V800Q256 813 246.5 822.5Q237 832 224 832ZM192 640H64V704H192ZM544 832H352Q339 832 329.5 822.5Q320 813 320 800V96Q320 83 329.5 73.5Q339 64 352 64H544Q557 64 566.5 73.5Q576 83 576 96V800Q576 813 566.5 822.5Q557 832 544 832ZM512 640H384V704H512ZM765 783 594 696Q582 690 578.0 677.5Q574 665 579 653L867 82Q873 70 886.0 65.5Q899 61 910 67L1082 154Q1094 160 1098.0 172.5Q1102 185 1096 197L808 768Q802 780 789.5 784.0Q777 788 765 783Z" fill="black" transform="scale(1,-1) translate(0,-1000)" /></svg>