<?xml version="1.0" encoding="utf-8" ?>
<svg baseProfile="tiny" height="100%" version="1.2" width="100%" xmlns="http://www.w3.org/2000/svg" xmlns:ev="http://www.w3.org/2001/xml-events" xmlns:xlink="http://www.w3.org/1999/xlink"><defs /><path d="M136 209Q80 209 40.0 169.0Q0 129 0 73Q0 17 40.0 -23.0Q80 -63 136 -63Q193 -63 233.0 -23.0Q273 17 273 73Q273 129 233.0 169.0Q193 209 136 209ZM0 612V416Q48 416 94 407Q140 397 183.0 379.5Q226 362 266 335Q305 309 339 275Q373 241 399 202Q425 163 442.5 120.0Q460 77 470 30Q479 -16 479 -64H676Q676 76 623 199Q570 322 478.0 414.0Q386 506 263 559Q140 612 0 612ZM0 960V764Q171 764 322 698Q472 633 584.5 521.0Q697 409 762 258Q827 107 827 -64H1024Q1024 148 943 334Q863 521 724.0 660.0Q585 799 398 879Q212 960 0 960Z" fill="black" transform="scale(1,-1) translate(0,-1000)" /></svg>