<?xml version="1.0" encoding="utf-8" ?>
<svg baseProfile="tiny" height="100%" version="1.2" width="100%" xmlns="http://www.w3.org/2000/svg" xmlns:ev="http://www.w3.org/2001/xml-events" xmlns:xlink="http://www.w3.org/1999/xlink"><defs /><path d="M960 960H1024V224Q1024 191 1006 162Q989 133 958.5 111.0Q928 89 887 77Q846 64 800 64Q754 64 713 77Q672 89 641.5 111.0Q611 133 594 162Q576 191 576 224Q576 257 594 286Q611 315 641.5 337.0Q672 359 713 371Q754 384 800 384Q847 384 888.5 371.0Q930 358 960 336V704L448 590V96Q448 63 430 34Q413 5 382.5 -17.0Q352 -39 311 -51Q270 -64 224 -64Q178 -64 137 -51Q96 -39 65.5 -17.0Q35 5 18 34Q0 63 0 96Q0 129 18 158Q35 187 65.5 209.0Q96 231 137 243Q178 256 224 256Q271 256 312.5 243.0Q354 230 384 208V832Z" fill="black" transform="scale(1,-1) translate(0,-1000)" /></svg>