<?xml version="1.0" encoding="utf-8" ?>
<svg baseProfile="tiny" height="100%" version="1.2" width="100%" xmlns="http://www.w3.org/2000/svg" xmlns:ev="http://www.w3.org/2001/xml-events" xmlns:xlink="http://www.w3.org/1999/xlink"><defs /><path d="M288 384H224V-64H288Q301 -64 310.5 -54.5Q320 -45 320 -32V352Q320 365 310.5 374.5Q301 384 288 384ZM736 384Q723 384 713.5 374.5Q704 365 704 352V-32Q704 -45 713.5 -54.5Q723 -64 736 -64H800V384ZM1024 448Q1024 554 984 647Q944 741 874.5 810.5Q805 880 711 920Q618 960 512 960Q406 960 313 920Q219 880 149.5 810.5Q80 741 40 647Q0 554 0 448Q0 402 8.0 358.0Q16 314 31 273Q16 248 8.0 219.5Q0 191 0 160Q0 118 15 80Q29 42 55.0 12.5Q81 -17 116 -36Q151 -56 192 -62V382Q168 378 146.0 370.0Q124 362 104 349Q100 369 98.0 390.0Q96 411 96 432Q96 518 129 594Q161 670 217.5 726.5Q274 783 350 815Q426 848 512 848Q598 848 674 815Q750 783 806.5 726.5Q863 670 895 594Q928 518 928 432Q928 411 926.0 390.0Q924 369 920 349Q900 362 878.0 370.0Q856 378 832 382V-62Q873 -56 908 -36Q943 -17 969.0 12.5Q995 42 1009 80Q1024 118 1024 160Q1024 191 1016.0 219.5Q1008 248 993 273Q1008 314 1016.0 358.0Q1024 402 1024 448Z" fill="black" transform="scale(1,-1) translate(0,-1000)" /></svg>